<?xml version="1.0" encoding="utf-8"?>
<!-- Generator: Adobe Illustrator 16.0.0, SVG Export Plug-In . SVG Version: 6.00 Build 0)  -->
<!DOCTYPE svg PUBLIC "-//W3C//DTD SVG 1.1//EN" "http://www.w3.org/Graphics/SVG/1.1/DTD/svg11.dtd">
<svg version="1.1" id="Camada_1" xmlns="http://www.w3.org/2000/svg" xmlns:xlink="http://www.w3.org/1999/xlink" x="0px" y="0px"
	 width="50.029px" height="50.029px" viewBox="0 0 50.029 50.029" enable-background="new 0 0 50.029 50.029" xml:space="preserve">
<g>
	<path fill-rule="evenodd" clip-rule="evenodd" fill="#FFFFFF" d="M23.976,0C24.988,0,26,0,27.012,0
		c0.115,0.026,0.229,0.066,0.344,0.076c2.553,0.202,5.026,0.759,7.395,1.729c4.168,1.705,7.641,4.345,10.356,7.938
		c2.56,3.388,4.15,7.193,4.689,11.421c0.072,0.565,0.155,1.129,0.232,1.693c0,1.013,0,2.025,0,3.037
		c-0.026,0.115-0.066,0.229-0.076,0.345c-0.201,2.36-0.705,4.649-1.561,6.864c-1.246,3.227-3.112,6.046-5.547,8.486
		c-1.557,1.561-3.306,2.885-5.229,3.965c-3.498,1.963-7.257,3.032-11.264,3.164c-4.4,0.145-8.561-0.802-12.464-2.858
		c-0.165-0.087-0.416-0.106-0.595-0.052c-1.45,0.443-2.893,0.911-4.338,1.371c-2.129,0.678-4.26,1.352-6.387,2.035
		c-0.807,0.26-1.605,0.543-2.408,0.815c-0.053-0.054-0.106-0.106-0.16-0.16c0.086-0.19,0.188-0.375,0.255-0.572
		c0.544-1.6,1.081-3.201,1.623-4.802c0.815-2.406,1.639-4.81,2.439-7.221c0.062-0.186,0.026-0.448-0.06-0.63
		c-0.296-0.623-0.647-1.22-0.955-1.838c-1.382-2.779-2.104-5.738-2.335-8.819c-0.19-2.529,0.065-5.024,0.673-7.487
		c0.789-3.197,2.184-6.108,4.167-8.727c1.99-2.628,4.41-4.781,7.274-6.434c2.825-1.632,5.842-2.683,9.078-3.101
		C22.766,0.161,23.371,0.08,23.976,0z M6.181,43.974c0.363-0.104,0.653-0.182,0.939-0.272c2.219-0.704,4.435-1.416,6.658-2.105
		c0.186-0.058,0.447-0.023,0.625,0.065c0.938,0.47,1.838,1.021,2.793,1.451c3.433,1.552,7.042,2.012,10.768,1.596
		c2.145-0.24,4.195-0.833,6.156-1.743c1.602-0.743,3.1-1.659,4.458-2.78c2.251-1.859,4.057-4.09,5.377-6.705
		c1.809-3.583,2.468-7.378,2.041-11.353c-0.399-3.708-1.765-7.046-4.019-10.023c-1.362-1.799-2.967-3.341-4.827-4.608
		c-2.542-1.73-5.329-2.889-8.376-3.352C24.151,3.44,19.75,4.14,15.627,6.372c-3.049,1.651-5.538,3.937-7.453,6.834
		c-1.349,2.041-2.303,4.253-2.849,6.64c-0.439,1.922-0.573,3.866-0.458,5.833c0.104,1.779,0.455,3.511,1.021,5.193
		c0.631,1.876,1.536,3.62,2.666,5.249c0.1,0.144,0.136,0.404,0.081,0.57c-0.639,1.933-1.301,3.857-1.955,5.784
		C6.519,42.95,6.363,43.426,6.181,43.974z"/>
	<path fill-rule="evenodd" clip-rule="evenodd" fill="#FFFFFF" d="M17.842,13.283c0.249,0,0.488-0.011,0.726,0.003
		c0.363,0.021,0.688,0.14,0.853,0.494c0.314,0.674,0.622,1.351,0.916,2.033c0.404,0.94,0.765,1.901,1.198,2.828
		c0.29,0.618,0.155,1.151-0.203,1.646c-0.404,0.56-0.856,1.085-1.302,1.613c-0.353,0.418-0.413,0.772-0.132,1.229
		c1.58,2.574,3.599,4.705,6.291,6.135c0.668,0.354,1.366,0.657,2.064,0.949c0.509,0.212,0.808,0.109,1.159-0.32
		c0.606-0.74,1.207-1.485,1.811-2.228c0.399-0.491,0.716-0.604,1.293-0.338c1.654,0.762,3.293,1.556,4.941,2.332
		c0.346,0.162,0.489,0.431,0.482,0.798c-0.016,0.899-0.156,1.773-0.549,2.593c-0.311,0.647-0.842,1.094-1.413,1.483
		c-1.63,1.116-3.405,1.642-5.363,1.088c-1.29-0.365-2.561-0.809-3.826-1.255c-2.95-1.04-5.381-2.859-7.523-5.098
		c-1.753-1.832-3.286-3.837-4.53-6.046c-1.027-1.824-1.518-3.773-1.058-5.875c0.325-1.484,1.125-2.691,2.277-3.657
		C16.496,13.237,17.17,13.188,17.842,13.283z"/>
</g>
</svg>
