<?xml version="1.0" encoding="utf-8"?>
<!-- Generator: Adobe Illustrator 16.0.0, SVG Export Plug-In . SVG Version: 6.00 Build 0)  -->
<!DOCTYPE svg PUBLIC "-//W3C//DTD SVG 1.1//EN" "http://www.w3.org/Graphics/SVG/1.1/DTD/svg11.dtd">
<svg version="1.1" id="Camada_1" xmlns="http://www.w3.org/2000/svg" xmlns:xlink="http://www.w3.org/1999/xlink" x="0px" y="0px"
	 width="22.422px" height="48.281px" viewBox="0 0 22.422 48.281" enable-background="new 0 0 22.422 48.281" xml:space="preserve">
<path fill-rule="evenodd" clip-rule="evenodd" fill="#FFFFFF" d="M14.763,24.172c0,8.091,0,16.081,0,24.109
	c-3.345,0-6.655,0-10.028,0c0-8.025,0-16.029,0-24.093c-1.605,0-3.148,0-4.735,0c0-2.869,0-5.678,0-8.545c1.572,0,3.114,0,4.732,0
	c0-0.271-0.002-0.485,0-0.699c0.019-1.993-0.071-3.995,0.084-5.978C5.07,5.734,6.352,3.019,9.276,1.31
	c1.519-0.887,3.195-1.258,4.927-1.289c2.603-0.046,5.206-0.005,7.809,0c0.071,0,0.142,0.017,0.247,0.031c0,2.736,0,5.458,0,8.254
	c-0.356,0-0.719,0-1.081,0c-1.403,0-2.806-0.006-4.209,0.002c-1.266,0.007-2.102,0.659-2.159,1.895
	c-0.083,1.783-0.021,3.573-0.021,5.428c2.541,0,5.058,0,7.632,0c-0.295,2.877-0.583,5.679-0.877,8.54
	C19.283,24.172,17.058,24.172,14.763,24.172z"/>
</svg>
