<?xml version="1.0" encoding="utf-8"?>
<!-- Generator: Adobe Illustrator 16.0.0, SVG Export Plug-In . SVG Version: 6.00 Build 0)  -->
<!DOCTYPE svg PUBLIC "-//W3C//DTD SVG 1.1//EN" "http://www.w3.org/Graphics/SVG/1.1/DTD/svg11.dtd">
<svg version="1.1" id="Camada_1" xmlns="http://www.w3.org/2000/svg" xmlns:xlink="http://www.w3.org/1999/xlink" x="0px" y="0px"
	 width="39.836px" height="34.886px" viewBox="0 0 39.836 34.886" enable-background="new 0 0 39.836 34.886" xml:space="preserve">
<g>
	<path fill-rule="evenodd" clip-rule="evenodd" fill="#FFFFFF" d="M39.836,2.16c0,7.709,0,15.419,0,23.13
		c0,0.38-0.241,0.753-0.451,1.07c-0.504,0.763-1.254,1.09-2.167,1.089c-6.747-0.005-13.494-0.002-20.241-0.006
		c-0.145,0-0.251,0.036-0.356,0.142c-0.69,0.689-1.388,1.371-2.083,2.055c-1.637,1.61-3.274,3.221-4.91,4.833
		c-0.235,0.232-0.503,0.39-0.837,0.41c-0.765,0.048-1.343-0.509-1.344-1.296c-0.002-1.965-0.001-3.93-0.001-5.894
		c0-0.078,0-0.156,0-0.247c-0.112,0-0.193,0-0.273,0c-1.579,0-3.157,0.011-4.735-0.006c-0.883-0.009-1.58-0.414-2.041-1.163
		C0.211,25.979,0,25.669,0,25.29C0,17.579,0,9.87,0,2.16c0.073-0.23,0.118-0.474,0.223-0.689C0.701,0.487,1.497,0,2.594,0
		c11.549,0.001,23.099,0.001,34.649,0.001c0.047,0,0.094-0.001,0.142,0.001c0.908,0.031,1.618,0.425,2.082,1.204
		C39.638,1.495,39.716,1.841,39.836,2.16z M3.315,3.307c0,7.498,0,13.352,0,20.845c2.483,0,4.134,0,6.634,0c0,1.893,0,3.772,0,5.694
		c0.088-0.083,0.138-0.128,0.187-0.176c1.815-1.785,3.632-3.57,5.443-5.36c0.122-0.12,0.24-0.164,0.408-0.164
		c7.024,0.003,13.236,0.002,20.261,0.002c0.091,0,0.183,0,0.274,0c0-7.508,0-13.357,0-20.841C24.906,3.307,14.931,3.307,3.315,3.307
		z"/>
	<path fill-rule="evenodd" clip-rule="evenodd" fill="#FFFFFF" d="M19.9,10.01c-3.698,0-7.397,0.001-11.096,0
		c-0.668,0-1.147-0.353-1.296-0.948C7.322,8.318,7.872,7.571,8.64,7.528c0.054-0.002,0.108-0.002,0.163-0.002
		c7.411,0,14.822,0,22.233,0c0.671,0,1.158,0.365,1.303,0.97c0.175,0.737-0.383,1.479-1.138,1.512
		c-0.087,0.003-0.176,0.002-0.264,0.002C27.257,10.01,23.579,10.01,19.9,10.01z"/>
	<path fill-rule="evenodd" clip-rule="evenodd" fill="#FFFFFF" d="M19.939,12.508c3.699,0,7.396,0,11.096,0
		c0.634,0.001,1.108,0.325,1.277,0.87c0.244,0.786-0.315,1.569-1.153,1.615c-0.06,0.004-0.122,0.002-0.183,0.002
		c-7.369,0-14.74,0.002-22.11-0.005c-0.236-0.001-0.491-0.045-0.706-0.14c-0.511-0.229-0.775-0.792-0.668-1.331
		c0.11-0.557,0.565-0.962,1.128-1.004c0.087-0.007,0.176-0.006,0.264-0.006C12.569,12.508,16.254,12.508,19.939,12.508z"/>
	<path fill-rule="evenodd" clip-rule="evenodd" fill="#FFFFFF" d="M16.178,19.969c-2.465,0-4.931,0.001-7.396,0
		c-0.649-0.001-1.128-0.361-1.274-0.95c-0.185-0.745,0.367-1.491,1.134-1.532c0.055-0.003,0.109-0.002,0.163-0.002
		c4.925,0,9.849,0,14.772,0c0.609,0,1.079,0.318,1.255,0.845c0.271,0.806-0.314,1.632-1.177,1.637
		c-1.604,0.008-3.21,0.002-4.815,0.002C17.952,19.969,17.065,19.969,16.178,19.969z"/>
</g>
</svg>
