<?xml version="1.0" encoding="utf-8"?>
<!-- Generator: Adobe Illustrator 16.0.0, SVG Export Plug-In . SVG Version: 6.00 Build 0)  -->
<!DOCTYPE svg PUBLIC "-//W3C//DTD SVG 1.1//EN" "http://www.w3.org/Graphics/SVG/1.1/DTD/svg11.dtd">
<svg version="1.1" id="Camada_1" xmlns="http://www.w3.org/2000/svg" xmlns:xlink="http://www.w3.org/1999/xlink" x="0px" y="0px"
	 width="39.655px" height="33.199px" viewBox="0 0 39.655 33.199" enable-background="new 0 0 39.655 33.199" xml:space="preserve">
<g>
	<path fill-rule="evenodd" clip-rule="evenodd" fill="#FFFFFF" d="M4.86,28.327c-0.992,0-1.933,0.001-2.874,0
		C0.672,28.324,0,27.652,0,26.343C0,18.225,0,10.107,0,1.99C0,0.686,0.683,0,1.986,0c10.269,0,20.537,0,30.805,0
		c1.341,0,1.999,0.66,2.004,2.006c0.003,0.813-0.001,1.626,0.001,2.438c0,0.128,0.011,0.256,0.02,0.423
		c0.992,0,1.959-0.007,2.926,0.005C38,4.875,38.271,4.898,38.513,4.98c0.742,0.252,1.142,0.881,1.142,1.743
		c0.001,5.298,0.001,10.596,0.001,15.894c0,2.885,0,5.771-0.001,8.655c0,1.196-0.708,1.915-1.905,1.915
		c-10.308,0.003-20.615-0.003-30.923,0.012C5.74,33.2,4.782,32.49,4.85,31.221C4.901,30.281,4.86,29.336,4.86,28.327z M8.112,29.937
		c9.45,0,18.859,0,28.292,0c0-7.279,0-14.536,0-21.81c-9.438,0-18.858,0-28.292,0C8.112,15.401,8.112,22.649,8.112,29.937z
		 M3.258,3.256c0,7.305,0,14.563,0,21.809c0.546,0,1.063,0,1.602,0c0-0.136,0-0.239,0-0.343c0-2.15,0-4.301,0-6.452
		c0-3.868-0.001-7.736,0.003-11.605c0.001-0.912,0.526-1.582,1.38-1.757c0.253-0.052,0.521-0.041,0.783-0.041
		c7.999-0.001,15.999,0,23.998,0c0.166,0,0.332,0,0.508,0c0-0.563,0-1.079,0-1.611C22.097,3.256,12.688,3.256,3.258,3.256z"/>
	<path fill-rule="evenodd" clip-rule="evenodd" fill="#FFFFFF" d="M9.751,28.023c0.093-0.146,0.156-0.257,0.229-0.361
		c1.986-2.862,3.973-5.726,5.961-8.588c0.499-0.718,0.961-0.732,1.485-0.046c0.708,0.927,1.412,1.856,2.119,2.784
		c0.526,0.69,0.974,0.694,1.493,0.012c1.778-2.336,3.552-4.674,5.336-7.005c0.138-0.179,0.323-0.362,0.525-0.442
		c0.401-0.16,0.661,0.109,0.885,0.405c1.381,1.831,2.762,3.661,4.143,5.493c0.892,1.182,1.785,2.361,2.67,3.549
		c0.088,0.118,0.171,0.275,0.174,0.416c0.018,1.206,0.016,2.411,0.019,3.617c0,0.051-0.019,0.101-0.031,0.168
		C26.435,28.023,18.118,28.023,9.751,28.023z"/>
	<path fill-rule="evenodd" clip-rule="evenodd" fill="#FFFFFF" d="M15.053,10.059c1.559,0.009,2.816,1.283,2.808,2.844
		c-0.008,1.552-1.287,2.824-2.838,2.825c-1.563,0-2.84-1.299-2.825-2.875C12.212,11.294,13.485,10.049,15.053,10.059z"/>
</g>
</svg>
