<?xml version="1.0" encoding="utf-8"?>
<!-- Generator: Adobe Illustrator 16.0.0, SVG Export Plug-In . SVG Version: 6.00 Build 0)  -->
<!DOCTYPE svg PUBLIC "-//W3C//DTD SVG 1.1//EN" "http://www.w3.org/Graphics/SVG/1.1/DTD/svg11.dtd">
<svg version="1.1" id="Camada_1" xmlns="http://www.w3.org/2000/svg" xmlns:xlink="http://www.w3.org/1999/xlink" x="0px" y="0px"
	 width="32.938px" height="26.745px" viewBox="0 0 32.938 26.745" enable-background="new 0 0 32.938 26.745" xml:space="preserve">
<path fill="#FFFFFF" d="M32.908,3.17c-1.209,0.533-2.511,0.898-3.872,1.062c1.393-0.834,2.464-2.159,2.967-3.735
	c-1.307,0.772-2.747,1.335-4.289,1.638C26.481,0.821,24.729,0,22.783,0c-3.729,0-6.753,3.024-6.753,6.752
	c0,0.531,0.058,1.046,0.175,1.54C10.592,8.013,5.622,5.321,2.291,1.236C1.71,2.233,1.375,3.392,1.375,4.633
	c0,2.338,1.194,4.408,3.006,5.618c-1.108-0.038-2.15-0.338-3.059-0.845c0,0.029,0,0.056,0,0.085c0,3.27,2.323,5.999,5.415,6.621
	c-0.568,0.156-1.165,0.238-1.778,0.238c-0.438,0-0.859-0.046-1.27-0.123c0.854,2.682,3.352,4.636,6.305,4.688
	c-2.304,1.807-5.224,2.891-8.382,2.891c-0.547,0-1.082-0.036-1.613-0.094c2.982,1.911,6.536,3.032,10.343,3.032
	c12.417,0,19.209-10.284,19.209-19.21c0-0.287-0.011-0.582-0.023-0.871C30.862,5.706,32.005,4.518,32.908,3.17z"/>
</svg>
