<?xml version="1.0" encoding="utf-8"?>
<!-- Generator: Adobe Illustrator 16.0.0, SVG Export Plug-In . SVG Version: 6.00 Build 0)  -->
<!DOCTYPE svg PUBLIC "-//W3C//DTD SVG 1.1//EN" "http://www.w3.org/Graphics/SVG/1.1/DTD/svg11.dtd">
<svg version="1.1" id="Camada_1" xmlns="http://www.w3.org/2000/svg" xmlns:xlink="http://www.w3.org/1999/xlink" x="0px" y="0px"
	 width="29.824px" height="33.199px" viewBox="0 0 29.824 33.199" enable-background="new 0 0 29.824 33.199" xml:space="preserve">
<g>
	<g>
		<g id="share-alt">
			<path fill="#CCCCCC" d="M24.993,11.663c-1.333,0-2.5,0.5-3.333,1.333L9.83,6.165c0.167-0.333,0.167-0.833,0.167-1.166
				C9.997,2.166,7.831,0,4.999,0S0,2.166,0,4.999s2.166,4.999,4.999,4.999c1.333,0,2.499-0.5,3.333-1.333l11.83,6.831
				c-0.167,0.333-0.167,0.833-0.167,1.166s0,0.833,0.167,1.167l-11.83,6.998c-0.833-0.833-2-1.334-3.333-1.334
				c-2.666,0-4.832,2.167-4.832,4.833c0,2.665,2.166,4.831,4.832,4.831S9.83,30.99,9.83,28.325c0-0.333,0-0.667-0.167-1.167
				l11.83-6.998c0.833,0.834,2,1.333,3.332,1.333c2.833,0,4.999-2.166,4.999-4.999C29.824,13.663,27.825,11.663,24.993,11.663z"/>
		</g>
	</g>
</g>
</svg>
