<?xml version="1.0" encoding="utf-8"?>
<!-- Generator: Adobe Illustrator 16.0.0, SVG Export Plug-In . SVG Version: 6.00 Build 0)  -->
<!DOCTYPE svg PUBLIC "-//W3C//DTD SVG 1.1//EN" "http://www.w3.org/Graphics/SVG/1.1/DTD/svg11.dtd">
<svg version="1.1" id="Camada_1" xmlns="http://www.w3.org/2000/svg" xmlns:xlink="http://www.w3.org/1999/xlink" x="0px" y="0px"
	 width="130.943px" height="37.795px" viewBox="0 0 130.943 37.795" enable-background="new 0 0 130.943 37.795"
	 xml:space="preserve">
<g>
	<path fill="#00A4DE" d="M73.753,22.547c-1.008,0.496-2.4,0.965-4.189,1.395c-1.646,0.357-2.473,0.541-2.473,0.541
		c-1.281,0.357-2.214,0.816-2.792,1.391c-0.496,0.791-0.752,1.578-0.752,2.367c0,1.07,0.33,1.932,0.973,2.572
		c0.638,0.576,1.574,0.863,2.794,0.863c1.996,0,3.572-0.578,4.717-1.725s1.723-2.721,1.723-4.717V22.547L73.753,22.547z
		 M75.468,35.752c-1.506,0.787-3.1,1.273-4.773,1.447c-1.688,0.184-3.172,0.275-4.463,0.275c-2.574,0-4.828-0.705-6.761-2.1
		c-1.932-1.391-2.896-3.699-2.896-6.928c0-3.004,0.873-5.146,2.629-6.441c1.754-1.291,3.988-2.141,6.708-2.57
		c0.357,0,0.787-0.057,1.291-0.164c0.504-0.104,1.072-0.195,1.713-0.268c3.154-0.432,4.729-1.355,4.729-2.793
		c0-1.072-0.559-1.771-1.668-2.092c-1.109-0.318-2.123-0.486-3.061-0.486c-0.998,0-1.896,0.148-2.684,0.434
		c-0.789,0.283-1.355,0.824-1.712,1.611h-7.191c0.281-2.229,1.283-4.051,3.004-5.479c1.934-1.648,4.691-2.475,8.261-2.475
		c4.014,0,7.02,0.688,9.025,2.045c2.072,1.43,3.107,3.436,3.107,6.008v9.775c0,2.859-0.514,5.096-1.559,6.709
		C78.134,33.875,76.896,35.037,75.468,35.752z"/>
	<path fill="#00A4DE" d="M47.613,0h3.867c1.006,0,1.857,0.359,2.574,1.072c0.723,0.715,1.078,1.576,1.078,2.576v2.254h-7.52V0z"/>
	<path fill="#00A4DE" d="M48.063,8.375h3.867c1.006,0,1.859,0.357,2.574,1.076c0.723,0.711,1.08,1.574,1.08,2.57v24.91h-7.521V8.375
		z"/>
	<path fill="#00A4DE" d="M41.314,28.129h5.371c-0.789,3.004-2.291,5.295-4.508,6.871c-2.217,1.648-5.014,2.475-8.375,2.475
		c-4.086,0-7.262-1.328-9.555-3.979c-2.291-2.572-3.438-6.266-3.438-11.059c0-4.58,1.109-8.162,3.324-10.736
		c2.293-2.648,5.482-3.977,9.559-3.977c4.295,0,7.621,1.293,9.986,3.867c2.293,2.648,3.437,6.338,3.437,11.059v0.752v0.432
		c0,0.357-0.039,0.611-0.111,0.748h-18.57c0.072,2.227,0.602,3.865,1.611,4.939c0.926,1.145,2.318,1.723,4.188,1.723
		c1.211,0,2.254-0.25,3.105-0.752c0.221-0.072,0.412-0.201,0.594-0.375c0.176-0.184,0.379-0.375,0.588-0.596
		c0.072-0.211,0.34-0.496,0.807-0.85C39.797,28.314,40.457,28.129,41.314,28.129L41.314,28.129z M28.436,19.754h10.949
		c-0.148-1.934-0.641-3.361-1.504-4.297c-0.938-0.998-2.256-1.5-3.977-1.5c-1.566,0-2.859,0.502-3.857,1.5
		C29.037,16.465,28.508,17.895,28.436,19.754z"/>
	<path fill="#00A4DE" d="M0,36.932V3.869c0-1.082,0.377-1.988,1.129-2.742C1.879,0.379,2.795,0,3.865,0h3.76v30.063h13.896v6.869H0z
		"/>
	<path fill="#ED3135" d="M123.974,22.547c-1.008,0.496-2.398,0.965-4.188,1.395c-1.648,0.357-2.475,0.541-2.475,0.541
		c-1.283,0.357-2.217,0.816-2.795,1.391c-0.494,0.791-0.75,1.578-0.75,2.367c0,1.07,0.332,1.932,0.971,2.572
		c0.643,0.576,1.578,0.863,2.795,0.863c1.998,0,3.576-0.578,4.721-1.725c1.143-1.146,1.721-2.721,1.721-4.717V22.547L123.974,22.547
		z M125.687,35.752c-1.502,0.787-3.096,1.273-4.773,1.447c-1.686,0.184-3.17,0.275-4.461,0.275c-2.576,0-4.83-0.705-6.76-2.1
		c-1.936-1.391-2.9-3.699-2.9-6.928c0-3.004,0.873-5.146,2.633-6.441c1.748-1.291,3.984-2.141,6.705-2.57
		c0.359,0,0.789-0.057,1.291-0.164c0.506-0.104,1.072-0.195,1.713-0.268c3.152-0.432,4.729-1.355,4.729-2.793
		c0-1.072-0.557-1.771-1.668-2.092c-1.107-0.318-2.123-0.486-3.061-0.486c-0.996,0-1.895,0.148-2.682,0.434
		c-0.787,0.283-1.357,0.824-1.715,1.611h-7.191c0.285-2.229,1.283-4.051,3.006-5.479c1.932-1.648,4.691-2.475,8.264-2.475
		c4.012,0,7.018,0.688,9.023,2.045c2.072,1.43,3.104,3.436,3.104,6.008v9.775c0,2.859-0.512,5.096-1.555,6.709
		C128.353,33.875,127.115,35.037,125.687,35.752z"/>
	<path fill="#ED3135" d="M81.947,23.08h7.412v4.508c0,1.291,0.357,2.291,1.07,3.014c0.715,0.643,1.824,0.965,3.328,0.965
		s2.611-0.395,3.324-1.184c0.58-0.715,0.863-2.254,0.863-4.619V3.869c0-1.08,0.393-1.988,1.182-2.742
		C99.916,0.379,100.849,0,101.921,0h3.645v26.086c0,2.363-0.109,4.086-0.318,5.158c-0.359,1.219-0.826,2.18-1.395,2.895
		c-1.008,1.219-2.326,2.154-3.977,2.793c-1.859,0.572-3.865,0.863-6.012,0.863c-2.289,0-4.148-0.291-5.586-0.863
		c-1.504-0.355-2.824-1.145-3.969-2.363c-0.936-0.994-1.537-2.006-1.822-3.002c-0.355-1.293-0.541-3.154-0.541-5.582V23.08z"/>
</g>
</svg>
